<mxfile host="65bd71144e">
    <diagram id="9hFtVN79J4yHOj1K4iIR" name="Page-1">
        <mxGraphModel dx="704" dy="1174" grid="1" gridSize="10" guides="1" tooltips="1" connect="1" arrows="1" fold="1" page="1" pageScale="1" pageWidth="850" pageHeight="1100" math="0" shadow="0">
            <root>
                <mxCell id="0"/>
                <mxCell id="1" parent="0"/>
                <mxCell id="2" value="" style="rounded=0;whiteSpace=wrap;html=1;fillColor=#6a00ff;fontColor=#ffffff;strokeColor=#000000;" vertex="1" parent="1">
                    <mxGeometry x="5" y="10.29" width="40" height="120" as="geometry"/>
                </mxCell>
                <mxCell id="3" value="" style="rounded=0;whiteSpace=wrap;html=1;fillColor=#a20025;fontColor=#ffffff;strokeColor=#000000;" vertex="1" parent="1">
                    <mxGeometry x="45" y="10.29" width="40" height="120" as="geometry"/>
                </mxCell>
                <mxCell id="4" value="" style="rounded=0;whiteSpace=wrap;html=1;fillColor=#1ba1e2;fontColor=#ffffff;strokeColor=#000000;" vertex="1" parent="1">
                    <mxGeometry x="85" y="10.29" width="200" height="120" as="geometry"/>
                </mxCell>
                <mxCell id="5" value="" style="rounded=0;whiteSpace=wrap;html=1;fillColor=#008a00;fontColor=#ffffff;strokeColor=#000000;" vertex="1" parent="1">
                    <mxGeometry x="285" y="10.29" width="200" height="120" as="geometry"/>
                </mxCell>
                <mxCell id="6" value="" style="rounded=0;whiteSpace=wrap;html=1;dashed=1;fillColor=#fa6800;fontColor=#000000;strokeColor=#000000;" vertex="1" parent="1">
                    <mxGeometry x="485" y="10.29" width="120" height="120" as="geometry"/>
                </mxCell>
                <mxCell id="8" value="" style="endArrow=none;html=1;entryX=1;entryY=0;entryDx=0;entryDy=0;exitX=1;exitY=0;exitDx=0;exitDy=0;strokeColor=#000000;" edge="1" parent="1" source="6" target="5">
                    <mxGeometry width="50" height="50" relative="1" as="geometry">
                        <mxPoint x="565" y="200.29" as="sourcePoint"/>
                        <mxPoint x="615" y="150.29" as="targetPoint"/>
                    </mxGeometry>
                </mxCell>
                <mxCell id="9" value="" style="endArrow=none;html=1;entryX=0;entryY=0;entryDx=0;entryDy=0;exitX=0;exitY=1;exitDx=0;exitDy=0;strokeColor=#000000;" edge="1" parent="1" source="6" target="6">
                    <mxGeometry width="50" height="50" relative="1" as="geometry">
                        <mxPoint x="575" y="20.29" as="sourcePoint"/>
                        <mxPoint x="495" y="20.29" as="targetPoint"/>
                    </mxGeometry>
                </mxCell>
                <mxCell id="10" value="" style="endArrow=none;html=1;entryX=1;entryY=1;entryDx=0;entryDy=0;exitX=1;exitY=1;exitDx=0;exitDy=0;strokeColor=#000000;" edge="1" parent="1" source="5" target="6">
                    <mxGeometry width="50" height="50" relative="1" as="geometry">
                        <mxPoint x="495" y="150.29" as="sourcePoint"/>
                        <mxPoint x="495" y="20.29" as="targetPoint"/>
                    </mxGeometry>
                </mxCell>
                <mxCell id="11" value="" style="rounded=0;whiteSpace=wrap;html=1;dashed=1;fillColor=#fa6800;fontColor=#000000;strokeColor=#000000;" vertex="1" parent="1">
                    <mxGeometry x="645" y="10" width="120" height="120" as="geometry"/>
                </mxCell>
                <mxCell id="12" value="" style="endArrow=none;html=1;entryX=0;entryY=0;entryDx=0;entryDy=0;exitX=1;exitY=0;exitDx=0;exitDy=0;strokeColor=#000000;" edge="1" parent="1" source="11" target="11">
                    <mxGeometry width="50" height="50" relative="1" as="geometry">
                        <mxPoint x="735" y="230.00000000000003" as="sourcePoint"/>
                        <mxPoint x="655" y="40.00000000000001" as="targetPoint"/>
                    </mxGeometry>
                </mxCell>
                <mxCell id="13" value="" style="endArrow=none;html=1;entryX=1;entryY=0;entryDx=0;entryDy=0;exitX=1;exitY=1;exitDx=0;exitDy=0;strokeColor=#000000;" edge="1" parent="1" source="11" target="11">
                    <mxGeometry width="50" height="50" relative="1" as="geometry">
                        <mxPoint x="735" y="160" as="sourcePoint"/>
                        <mxPoint x="735" y="40.00000000000001" as="targetPoint"/>
                    </mxGeometry>
                </mxCell>
                <mxCell id="14" value="" style="endArrow=none;html=1;entryX=1;entryY=1;entryDx=0;entryDy=0;exitX=0;exitY=1;exitDx=0;exitDy=0;strokeColor=#000000;" edge="1" parent="1" target="11" source="11">
                    <mxGeometry width="50" height="50" relative="1" as="geometry">
                        <mxPoint x="655" y="160" as="sourcePoint"/>
                        <mxPoint x="665" y="50.00000000000001" as="targetPoint"/>
                    </mxGeometry>
                </mxCell>
                <mxCell id="15" value="Boot Block" style="text;html=1;strokeColor=none;fillColor=none;align=center;verticalAlign=middle;whiteSpace=wrap;rounded=0;dashed=1;rotation=-90;fontSize=20;fontStyle=0" vertex="1" parent="1">
                    <mxGeometry x="-30" y="59.99999999999999" width="110" height="20" as="geometry"/>
                </mxCell>
                <mxCell id="16" value="Super Block" style="text;html=1;strokeColor=none;fillColor=none;align=center;verticalAlign=middle;whiteSpace=wrap;rounded=0;dashed=1;rotation=-90;fontSize=20;" vertex="1" parent="1">
                    <mxGeometry x="10" y="60.29" width="110" height="20" as="geometry"/>
                </mxCell>
                <mxCell id="17" value="Inode Bitmap" style="text;html=1;strokeColor=none;fillColor=none;align=center;verticalAlign=middle;whiteSpace=wrap;rounded=0;dashed=1;rotation=0;fontSize=20;" vertex="1" parent="1">
                    <mxGeometry x="112.5" y="60.29" width="145" height="20" as="geometry"/>
                </mxCell>
                <mxCell id="18" value="Free Block Bitmap" style="text;html=1;strokeColor=none;fillColor=none;align=center;verticalAlign=middle;whiteSpace=wrap;rounded=0;dashed=1;rotation=0;fontSize=20;" vertex="1" parent="1">
                    <mxGeometry x="285" y="60.29" width="200" height="20" as="geometry"/>
                </mxCell>
                <mxCell id="19" value="Data and Inode Blocks" style="text;html=1;strokeColor=none;fillColor=none;align=center;verticalAlign=middle;whiteSpace=wrap;rounded=0;dashed=1;rotation=0;fontSize=20;" vertex="1" parent="1">
                    <mxGeometry x="485" y="50.29" width="120" height="20" as="geometry"/>
                </mxCell>
                <mxCell id="20" value="..." style="text;html=1;strokeColor=none;fillColor=none;align=center;verticalAlign=middle;whiteSpace=wrap;rounded=0;dashed=1;rotation=0;fontSize=34;fontStyle=1" vertex="1" parent="1">
                    <mxGeometry x="485" y="50.29" width="280" height="20" as="geometry"/>
                </mxCell>
            </root>
        </mxGraphModel>
    </diagram>
</mxfile>